<?xml version="1.0" encoding="UTF-8"?>
<svg id="Layer_1" data-name="Layer 1" xmlns="http://www.w3.org/2000/svg" viewBox="0 0 1325.02 1325.02">
  <defs>
    <style>
      .cls-1 {
        fill: none;
      }

      .cls-1, .cls-2 {
        stroke: #000;
        stroke-miterlimit: 10;
        stroke-width: 9px;
      }
    </style>
  </defs>
  <circle cx="662.51" cy="451.38" r="343.52"/>
  <path class="cls-2" d="M1161.43,1091.54c-41.79,48.56-90.56,90.96-144.75,125.62-102.24,65.43-223.78,103.36-354.17,103.36s-251.93-37.93-354.17-103.36c-54.19-34.66-102.96-77.06-144.75-125.62,66.81-157.14,264.92-271.09,498.92-271.09s432.11,113.95,498.92,271.09Z"/>
  <path class="cls-1" d="M1320.52,662.51c0,163.92-59.93,313.83-159.09,429.03-66.81-157.14-264.93-271.09-498.92-271.09s-432.11,113.95-498.92,271.09C64.43,976.34,4.5,826.43,4.5,662.51,4.5,299.1,299.1,4.5,662.51,4.5s658.01,294.6,658.01,658.01Z"/>
</svg>