<?xml version="1.0" encoding="UTF-8"?>
<svg id="Layer_1" data-name="Layer 1" xmlns="http://www.w3.org/2000/svg" viewBox="0 0 67.02 73.96">
  <defs>
    <style>
      .cls-1 {
        fill: #47b559;
      }
    </style>
  </defs>
  <path class="cls-1" d="M64.01,35.03c-.13,2.72-.62,5.34-1.42,7.83l2.72,1.34c.98-2.9,1.57-5.98,1.71-9.17h-3.01ZM61.52,45.69c-.69,1.59-1.51,3.11-2.45,4.54.74.74,1.4,1.56,1.96,2.45,1.23-1.77,2.31-3.67,3.18-5.67l-2.69-1.32ZM64.64,21.05l-2.39,2.13c1,2.79,1.61,5.76,1.76,8.85h3.01c-.17-3.87-1-7.56-2.38-10.98Z"/>
  <path class="cls-1" d="M59.07,50.23c-2.51-2.49-5.97-4.03-9.77-4.03-7.65,0-13.88,6.23-13.88,13.88,0,1.34.19,2.64.56,3.87-.81.07-1.63.1-2.46.1-16.83,0-30.52-13.69-30.52-30.52S16.69,3,33.52,3c10.86,0,18.08,3.22,23.49,11.77l-7.79-.8-.31,2.99,13.68,1.39-.51-12.9-2.99.11.28,7.32C53.39,3.64,45.31,0,33.52,0,15.04,0,0,15.04,0,33.53s15.04,33.52,33.52,33.52c1.24,0,2.47-.07,3.67-.2,2.38,4.24,6.92,7.11,12.11,7.11,7.65,0,13.88-6.23,13.88-13.88,0-2.72-.79-5.26-2.15-7.4-.56-.89-1.22-1.71-1.96-2.45ZM49.3,70.96c-3.67,0-6.92-1.83-8.89-4.62-.6-.85-1.08-1.78-1.42-2.78-.37-1.09-.57-2.26-.57-3.48,0-6,4.88-10.88,10.88-10.88,3.14,0,5.98,1.34,7.97,3.48.7.76,1.3,1.62,1.78,2.56.72,1.46,1.13,3.1,1.13,4.84,0,6-4.88,10.88-10.88,10.88Z"/>
  <path class="cls-1" d="M41.55,41.11c-.18,0-.37-.03-.55-.1l-10.97-4.33v-16.95c0-.83.67-1.5,1.5-1.5s1.5.67,1.5,1.5v14.91l9.07,3.58c.77.3,1.15,1.18.84,1.95-.23.59-.8.95-1.4.95Z"/>
  <path class="cls-1" d="M49.3,63.73c-1.1,0-2-.9-2-2v-7.91c0-1.1.9-2,2-2s2,.9,2,2v7.91c0,1.1-.9,2-2,2Z"/>
  <path class="cls-1" d="M49.3,68.99c-.27,0-.52-.05-.77-.15-.24-.1-.46-.25-.64-.44-.19-.18-.34-.4-.44-.64-.1-.25-.15-.5-.15-.77s.05-.52.15-.77c.1-.24.25-.46.44-.64.75-.76,2.07-.76,2.82,0,.19.18.34.4.44.64.1.25.15.5.15.77,0,.53-.21,1.04-.59,1.41-.18.19-.4.34-.64.44-.25.1-.5.15-.77.15Z"/>
</svg>