<?xml version="1.0" encoding="UTF-8"?>
<svg id="Layer_1" data-name="Layer 1" xmlns="http://www.w3.org/2000/svg" viewBox="0 0 940.9 871.48">
  <path d="M294.11,735.61c-44.27-3.46-75.28-39.98-71.15-84.38,2.37-25.57,23.87-46.7,30.92-70.56L151.26,44.38c-2.43-5.44-6.51-9.7-12.72-10.45-38.66-2.9-83.32,4.02-121.27-.11C-4.68,31.42-6.02,5.31,15.03.95c39.33,1.77,81.2-2.69,120.23-.15,26.69,1.74,42.33,16.59,48.71,41.77,9.35,36.96,13.73,77.39,21.84,114.96.33,1.53.96,7.41,2.41,7.75l669.66-.09c42.04,3.77,71.42,44.09,60.87,85.21-31.13,97.9-49.91,203.61-82.14,300.7-9.66,29.1-30.19,47.99-61.49,51.05l-514.02-.06c-6.64,13.43-17.24,27.8-22.69,41.55-10.58,26.69,4.11,52.17,31.38,58.77l540.6.09c17.13.8,22.47,24.07,6.82,31.1-.84.37-5.4,2-5.72,2h-62.34l17.67,11.57c43.5,37.61,25.3,110.94-30.87,122.51-73.46,15.13-116.6-75.49-60.62-123.49l16.44-10.59h-332.14l17.13,11.01c42.83,36.31,27.84,107.53-26.83,122.17-72.69,19.46-120.68-71.1-65.92-121.07l18.24-12.11h-28.14ZM355.35,300.94l-19.31-103.7h-121.93l18.76,103.7h122.48ZM542.93,197.23h-172.14l17.66,103.7h154.48v-103.7ZM748.18,197.23h-172.14v103.7h152.83l19.31-103.7ZM891.62,300.94c3.56-29.64,32.48-71.74,3.32-95.44-6.21-5.05-12.49-7.35-20.44-8.24l-92.58-.08-18.3,103.77h128ZM360.87,332.93h-121.38l19.86,104.81h120.28l-18.76-104.81ZM542.93,332.93h-147.86l17.66,104.81h130.21v-104.81ZM723.9,332.93h-147.86v104.81h128.55l19.31-104.81ZM881.69,332.93h-123.03l-19.31,104.81h114.76l27.59-104.81ZM385.14,469.73h-119.17l18.76,100.39h118.07l-17.66-100.39ZM542.93,469.73h-123.59l18.21,100.39h105.38v-100.39ZM699.62,469.73h-123.59v100.39h105.38l18.21-100.39ZM716.18,570.13h77.79c9.87,0,25.36-11.17,29.1-20.55l21.79-77.57-1.23-2.28h-109.24l-18.21,100.39Z"/>
</svg>